<svg xmlns="http://www.w3.org/2000/svg" width="45" height="45" stroke="#000"
     xmlns:v="https://vecta.io/nano">
    <g fill="white" stroke="blue">
        <path d="M9 36c3.385-.972 10.115.431 13.5-2 3.385 2.431 10.115 1.028 13.5 2a7.98 7.98 0 0 0 3 2c-.677.972-1.646.986-3 .5-3.385-.972-10.115.458-13.5-1-3.385 1.458-10.115.028-13.5 1-1.354.486-2.323.472-3-.5 1.354-1.945 3-2 3-2zm6-4c2.5 2.5 12.5 2.5 15 0 .5-1.5 0-2 0-2 0-2.5-2.5-4-2.5-4 5.5-1.5 6-11.5-5-15.5-11 4-10.5 14-5 15.5 0 0-2.5 1.5-2.5 4 0 0-.5.5 0 2z" fill-rule="evenodd" stroke-width="1.5" stroke-linejoin="round"/>
        <path d="M25 8a2.5 2.5 0 1 1-5 0 2.5 2.5 0 1 1 5 0z" stroke-width="1.5" stroke-linejoin="round"/>
        <g fill="none">
            <path d="M17.5 26h10M15 30h15" stroke-width="1.5"/>
            <g stroke-linecap="round">
                <path d="M22.5 15.5v5" stroke-width="1.5"/>
                <path d="M20 18h5" stroke-width="1.5"/>
            </g>
        </g>
    </g>

</svg>