<svg xmlns="http://www.w3.org/2000/svg" fill="#000000" height="400" width="400" viewBox="0 0 25.172 25.172"
    xmlns:v="https://vecta.io/nano">
    <rect id="back_rectangle" width="21.404" height="21.542" x="2.191" y="1.641" ry=".45" fill="#fff" stroke="#0000bc" stroke-width=".094" stroke-linejoin="round" stroke-opacity=".502" paint-order="stroke markers fill"/>
    <g id="dots_and_edges" fill="black">
        <path d="M21.451 0H3.721C1.669 0 0 1.669 0 3.721v17.73c0 2.052 1.669 3.721 3.721 3.721h17.73c2.052 0 3.721-1.669 3.721-3.721V3.722C25.172 1.67 23.503 0 21.451 0zm1.532 21.452c0 .845-.687 1.532-1.532 1.532H3.721c-.845 0-1.532-.687-1.532-1.532V3.722c0-.845.687-1.532 1.532-1.532h17.73c.845 0 1.532.687 1.532 1.532z"/>
        <g id="d2" visibility="visible">
            <circle cx="18.605" cy="6.567" r="2.189"/>
            <circle cx="6.567" cy="18.606" r="2.189"/>
        </g>
        <g id="d1" visibility="visible">
            <circle cx="6.567" cy="6.567" r="2.189"/>
            <circle cx="18.605" cy="18.606" r="2.189"/>
        </g>
        <g id="m" visibility="visible">
            <circle cx="12.586" cy="12.586" r="2.189"/>
        </g>
        <g id="h" visibility="visible">
            <circle cx="6.567" cy="12.586" r="2.189"/>
            <circle cx="18.605" cy="12.586" r="2.189"/>
        </g>
    </g>
</svg>